# xmcd
#
# Track frame offsets:
#	150
#	37515
#	58295
#	91740
#	131557
#	166125
#
# Disc length: 2646
#
# Revision: 1
# Processed by: cddbd v1.5.1PL0 Copyright (c) Steve Scherf et al.
# Submitted via: CDex 1.51
# Normalized: r0:TRMNUM
#
DISCID=3f0a5406
DTITLE=Eric Clapton - Just One Night (Disk 2)
DYEAR=1980
DGENRE=Blues
TTITLE0=Double Trouble
TTITLE1=Setting Me Up
TTITLE2=Blues Power
TTITLE3=Rambling On My Mind
TTITLE4=Cocaine
TTITLE5=FurtherOn Up The Road
EXTD=YEAR: 1980
EXTT0=
EXTT1=
EXTT2=
EXTT3=
EXTT4=
EXTT5=
PLAYORDER=
